HIERARCHY
ROOT Hips
{
  OFFSET 3.13124 94.3669 -3.18751
  CHANNELS  6 Xposition Yposition Zposition Zrotation Xrotation Yrotation
  JOINT LeftUpLeg
  {
    OFFSET 8.64259 1.95398 -2.38835
    CHANNELS 3 Zrotation Xrotation Yrotation
    JOINT LeftLeg
    {
      OFFSET 43.7702 0 0
      CHANNELS 3 Zrotation Xrotation Yrotation
      JOINT LeftFoot
      {
        OFFSET 40.6238 0 0
        CHANNELS 3 Zrotation Xrotation Yrotation
        JOINT LeftToeBase
        {
          OFFSET 12.7242 0 0
          CHANNELS 3 Zrotation Xrotation Yrotation
          End Site
          {
            OFFSET 0 0 0
          }
        }
      }
    }
  }
  JOINT RightUpLeg
  {
    OFFSET -8.2249 1.95398 -2.59336
    CHANNELS 3 Zrotation Xrotation Yrotation
    JOINT RightLeg
    {
      OFFSET 43.5653 0 0
      CHANNELS 3 Zrotation Xrotation Yrotation
      JOINT RightFoot
      {
        OFFSET 40.6238 0 0
        CHANNELS 3 Zrotation Xrotation Yrotation
        JOINT RightToeBase
        {
          OFFSET 12.7242 0 0
          CHANNELS 3 Zrotation Xrotation Yrotation
          End Site
          {
            OFFSET 0 0 0
          }
        }
      }
    }
  }
  JOINT Spine
  {
    OFFSET 0.165834 0.87714 6.61349
    CHANNELS 3 Zrotation Xrotation Yrotation
    JOINT Spine1
    {
      OFFSET 7.38962 1.71661e-005 0
      CHANNELS 3 Zrotation Xrotation Yrotation
      JOINT Spine2
      {
        OFFSET 11.9445 1.14441e-005 0
        CHANNELS 3 Zrotation Xrotation Yrotation
        JOINT Spine3
        {
          OFFSET 14.7254 4.19617e-005 0
          CHANNELS 3 Zrotation Xrotation Yrotation
          JOINT Spine4
          {
            OFFSET 10.9679 0 0
            CHANNELS 3 Zrotation Xrotation Yrotation
            JOINT RightShoulder
            {
              OFFSET 2.46616 -1.6653 3.69651
              CHANNELS 3 Zrotation Xrotation Yrotation
              JOINT RightArm
              {
                OFFSET 13.0012 0 0
                CHANNELS 3 Zrotation Xrotation Yrotation
                JOINT RightForeArm
                {
                  OFFSET 28.7848 1.52588e-005 0
                  CHANNELS 3 Zrotation Xrotation Yrotation
                  JOINT RightHand
                  {
                    OFFSET 26.5688 1.52588e-005 0
                    CHANNELS 3 Zrotation Xrotation Yrotation
                    End Site
                    {
                      OFFSET 0 0 0
                    }
                  }
                }
              }
            }
            JOINT LeftShoulder
            {
              OFFSET 2.38034 -1.29275 -3.75231
              CHANNELS 3 Zrotation Xrotation Yrotation
              JOINT LeftArm
              {
                OFFSET 16.3182 6.10352e-005 0
                CHANNELS 3 Zrotation Xrotation Yrotation
                JOINT LeftForeArm
                {
                  OFFSET 27.0901 0 0
                  CHANNELS 3 Zrotation Xrotation Yrotation
                  JOINT LeftHand
                  {
                    OFFSET 24.5451 1.52588e-005 0
                    CHANNELS 3 Zrotation Xrotation Yrotation
                    End Site
                    {
                      OFFSET 0 0 0
                    }
                  }
                }
              }
            }
            JOINT Neck
            {
              OFFSET 5.0226 -0.0266342 0
              CHANNELS 3 Zrotation Xrotation Yrotation
              JOINT Head
              {
                OFFSET 6.69363 2.86102e-005 0
                CHANNELS 3 Zrotation Xrotation Yrotation
                End Site
                {
                  OFFSET 0 0 0
                }
              }
            }
          }
        }
      }
    }
  }
}
MOTION
Frames:	18
Frame Time:	0.0333333
49.5523 90.5613 47.5145 -86.5515 2.47468 -90.6875 -175.518 -4.10613 86.2372 -37.676 37.0936 6.8847 45.0688 -7.56411 -6.82106 28.7808 4.24298e-006 1.20185e-005 -179.959 30.4475 93.5365 -27.4315 15.3521 0.786956 54.7311 -6.68232 -4.2755 28.7808 1.61087e-005 3.55147e-005 -0.0839246 6.79913 -90.6509 13.2728 -0.394378 -1.46013 1.60114 -0.458203 -1.44126 -20.9275 0.0623671 -1.51115 -0.914795 0.0623641 -1.51118 84.443 -51.3702 -108.813 16.0297 26.3315 6.96472 -3.33947 28.2757 -13.2428 49.5138 4.14072 3.80337 -103.864 -55.1315 60.5282 -23.2889 -13.819 4.03576 -18.9519 -33.5732 -37.0724 47.993 -5.66247 -16.1902 -26.2685 -2.03207 4.89362 -13.968 -0.7129 -8.96794 
47.228 91.2544 47.0981 -85.3148 0.741243 -90.63 -175.344 1.36566 86.7977 -44.4099 34.3123 6.87726 37.5513 -12.4563 -12.4672 28.7808 4.24298e-006 1.20185e-005 -179.828 29.3605 93.21 -26.1075 16.9544 0.876156 55.5709 -7.21294 -4.58955 28.7808 1.61087e-005 3.55147e-005 -0.0898687 6.75946 -90.453 13.3496 -0.352806 -1.49819 1.67785 -0.418454 -1.48122 -20.8503 0.114001 -1.53449 -0.837664 0.113998 -1.53451 84.7497 -51.3102 -108.383 16.594 25.5902 5.96503 -0.79444 29.5932 -19.0576 49.7086 3.94722 3.35815 -103.628 -53.853 60.3546 -22.5847 -14.1272 2.76232 -24.6212 -38.459 -41.0981 48.786 -7.62867 -20.0286 -24.7504 -2.15667 4.50302 -14.1965 -0.910448 -9.04297 
45.0491 92.0286 46.7466 -84.7093 -1.07603 -90.4737 -175.525 7.43869 87.0992 -51.6859 27.8033 6.80855 36.2655 -11.1933 -11.7327 28.7808 4.24298e-006 1.20185e-005 -179.533 27.117 93.2001 -23.5335 19.1306 0.983299 55.916 -7.57046 -4.81299 28.7808 1.61087e-005 3.55147e-005 -0.0595869 6.7629 -90.182 13.3457 -0.212653 -1.69707 1.67375 -0.287383 -1.68675 -20.8529 0.308779 -1.68454 -0.840278 0.308777 -1.68456 85.2091 -50.6368 -107.914 17.2238 25.3092 4.99902 1.32112 30.9786 -23.6076 49.8469 3.2626 1.88335 -104.195 -53.0992 59.276 -21.7675 -14.5293 1.46901 -32.8011 -43.3688 -47.4406 46.3458 -10.4048 -26.9347 -24.1204 -2.57421 4.07066 -14.0817 -1.40148 -9.06089 
43.0346 92.6692 46.4162 -84.6292 -2.90349 -90.5961 -176.057 13.0963 86.7138 -57.5183 19.4939 6.11136 39.0674 -7.73017 -8.01094 28.7808 4.24298e-006 1.20185e-005 -179.315 24.8218 92.7655 -21.6732 21.3503 1.06608 56.603 -7.71461 -4.86502 28.7808 1.61087e-005 3.55147e-005 -0.0610662 6.8283 -89.8096 13.2182 -0.0753429 -1.69842 1.54613 -0.149832 -1.69309 -20.9806 0.437128 -1.63882 -0.967907 0.437105 -1.63883 85.2267 -50.4085 -107.955 17.4146 25.1992 3.97102 3.07649 31.684 -27.9978 50.2967 3.11235 1.49839 -104.289 -52.3604 58.8437 -21.1629 -14.8431 -0.324572 -35.9191 -44.3592 -50.1528 43.6471 -11.7948 -31.5137 -24.0015 -2.84477 2.94591 -13.7779 -1.83463 -8.58572 
41.2164 93.2856 46.1066 -84.4227 -4.57391 -91.3842 -176.374 18.6328 85.7781 -60.7302 9.95274 4.78976 40.3233 -2.24593 -3.00591 28.7808 4.24298e-006 1.20185e-005 -179.25 22.8164 91.8729 -19.7963 22.9516 1.08405 56.9914 -8.00428 -5.02877 28.7808 1.61087e-005 3.55147e-005 -0.0813209 6.86741 -89.354 13.1439 0.0906974 -1.5178 1.47208 0.0238165 -1.52032 -21.0565 0.542624 -1.4204 -1.04383 0.542603 -1.42041 85.2656 -50.1483 -107.978 17.5008 24.7569 3.33316 5.10653 32.0291 -31.944 50.2674 2.57849 0.38542 -104.488 -52.2911 58.5394 -20.475 -15.2614 -1.63023 -37.9264 -42.3237 -53.2801 43.1212 -12.5524 -33.5741 -23.9808 -2.94012 2.14807 -13.9381 -1.99628 -8.39321 
39.4947 93.7876 45.794 -84.1571 -6.30757 -91.9439 -176.827 23.6211 85.2348 -61.9801 5.9912 4.46495 43.0942 0.569861 -0.437238 28.7808 4.24298e-006 1.20185e-005 -179.192 20.8718 91.2505 -17.7216 25.1594 1.19791 57.4134 -8.2926 -5.17859 28.7808 1.61087e-005 3.55147e-005 -0.0831333 6.87488 -89.0855 13.1335 0.245354 -1.34598 1.46184 0.185872 -1.35548 -21.0685 0.638509 -1.21004 -1.05586 0.638489 -1.21007 85.2334 -49.9002 -108.104 17.2701 25.3041 3.09653 2.7945 27.5889 -35.2282 51.8667 3.31377 1.66287 -104.694 -51.871 58.0837 -20.1001 -15.5404 -1.96821 -40.4064 -39.3347 -57.3949 43.0357 -12.57 -33.6546 -24.5259 -3.06717 1.62447 -13.8734 -2.19559 -8.0957 
37.6846 94.1022 45.6076 -84.3429 -7.76607 -92.2539 -177.185 27.7224 84.6959 -61.1214 1.0697 3.69893 44.6438 4.12048 2.53257 28.7808 4.24298e-006 1.20185e-005 -179.133 18.9312 90.9566 -16.7099 27.2382 1.34757 58.2393 -8.52596 -5.26374 28.7808 1.61087e-005 3.55147e-005 -0.0537338 6.91945 -88.9776 13.0475 0.389596 -1.24397 1.37605 0.334445 -1.25991 -21.1558 0.745419 -1.06941 -1.14317 0.745386 -1.06942 85.268 -49.47 -108.188 17.0791 24.9121 3.49067 3.1921 26.9981 -38.1119 53.1058 3.4358 1.75616 -104.826 -51.8896 57.9028 -19.9901 -15.6429 -2.48037 -42.5055 -36.7789 -60.8569 43.5587 -12.7238 -33.6412 -24.9325 -3.08058 1.67536 -13.9343 -2.22335 -7.83292 
35.7583 94.1657 45.5072 -84.634 -9.03189 -92.1736 -177.731 30.84 84.4608 -58.306 -0.437694 3.49858 46.5813 5.47931 3.58865 28.7808 4.24298e-006 1.20185e-005 -179.093 17.5497 91.0878 -17.2156 29.1566 1.56679 59.8086 -8.20451 -4.93402 28.7808 1.61087e-005 3.55147e-005 0.0707695 6.95787 -89.172 12.9793 0.557629 -1.2008 1.30794 0.504228 -1.22417 -21.2251 0.892718 -0.977725 -1.21239 0.892723 -0.97773 85.4366 -49.0776 -108.056 16.6686 23.8787 4.49847 5.37137 28.642 -40.4348 54.6831 3.30998 1.2365 -104.875 -52.0747 57.9136 -20.3266 -15.3793 -2.31206 -42.7097 -33.9401 -62.8533 42.7823 -12.6858 -34.1032 -25.3369 -3.15363 2.02446 -13.9477 -2.29346 -7.55947 
33.6326 94.009 45.4972 -84.7838 -10.2915 -92.0265 -178.384 33.1045 84.2697 -53.4666 -0.0186247 3.4645 48.346 5.8653 3.8382 28.7808 4.24298e-006 1.20185e-005 -179.128 16.7232 91.2998 -18.9324 30.9494 1.84528 62.0996 -7.67638 -4.4599 28.7808 1.61087e-005 3.55147e-005 0.226016 6.95181 -89.5509 12.9912 0.695786 -1.16939 1.31992 0.643606 -1.19886 -21.214 1.01504 -0.906234 -1.20136 1.01501 -0.906245 85.7978 -48.4142 -107.713 16.8034 23.2221 5.49957 5.62561 28.0278 -40.4964 54.2783 2.10953 -0.978218 -105.162 -52.4347 57.6678 -20.7214 -15.0416 -1.79458 -42.8327 -31.9392 -64.312 42.4278 -12.6748 -34.3392 -25.7725 -3.38248 2.58422 -13.949 -2.51128 -7.24608 
31.316 93.6995 45.5464 -85.0205 -11.4296 -91.8428 -178.941 34.2651 84.4253 -46.6428 -0.645877 2.79167 48.847 5.34507 3.44954 28.7808 4.24298e-006 1.20185e-005 -179.186 15.9727 91.6662 -21.2713 32.6 2.10908 64.6898 -6.95825 -3.90084 28.7808 1.61087e-005 3.55147e-005 0.391401 6.97191 -89.9505 12.9436 0.821291 -1.05895 1.27242 0.773873 -1.09406 -21.2627 1.10154 -0.763159 -1.25005 1.10155 -0.763178 85.9616 -48.6167 -107.397 16.3794 22.3918 5.8203 7.07753 28.945 -41.283 53.9478 3.26054 1.27653 -105.058 -52.5838 57.8728 -21.1356 -14.6679 -1.5497 -43.3799 -31.3043 -65.197 42.3659 -12.835 -34.7446 -25.4639 -3.40774 1.87663 -14.2265 -2.73054 -5.73364 
28.8085 93.1957 45.6542 -85.2138 -12.0333 -91.3856 -179.104 34.3384 85.1354 -37.9231 -1.13464 1.8062 50.2243 3.89127 2.34547 28.7808 4.24298e-006 1.20185e-005 -179.23 15.203 92.4054 -23.7879 33.9028 2.35454 67.5109 -5.86259 -3.1876 28.7808 1.61087e-005 3.55147e-005 0.606238 6.97014 -90.4703 12.9369 0.948838 -0.965212 1.26594 0.905382 -1.00611 -21.2706 1.19503 -0.635425 -1.25796 1.19503 -0.635442 85.7891 -49.0593 -107.526 15.8453 21.8057 5.75121 6.12007 28.1526 -37.9231 53.1793 2.11641 -0.866346 -104.718 -52.9041 58.4735 -21.4402 -14.4231 -0.903148 -43.2414 -31.4247 -65.0018 41.8683 -12.8461 -35.111 -25.428 -3.20053 1.44264 -14.0853 -2.70018 -4.5853 
25.9483 91.5863 45.8493 -85.2094 -11.812 -89.9788 -178.449 31.8813 86.7587 -25.9237 -3.79925 -0.102106 60.1128 3.8376 2.24085 28.7808 4.24298e-006 1.20185e-005 -179.547 16.518 94.2701 -30.5874 34.8852 2.70738 72.6348 -3.46772 -1.88504 28.7808 1.61087e-005 3.55147e-005 1.14302 6.90395 -91.6191 13.0236 1.11842 -0.943724 1.35275 1.07577 -0.991646 -21.1851 1.35029 -0.563873 -1.17243 1.35029 -0.563894 85.6502 -49.0705 -107.733 16.2457 21.8664 5.50683 4.11696 26.3364 -33.3849 51.5069 1.06337 -2.85849 -104.402 -53.3968 59.1103 -21.5124 -14.4123 0.183961 -42.084 -32.0674 -63.6039 41.5336 -12.6118 -34.7893 -25.434 -2.92807 1.8979 -14.1877 -2.36836 -4.62649 
23.1942 91.1534 46.0507 -85.3693 -11.4011 -89.5118 -176.828 31.1199 87.0545 -16.3344 -9.35086 -2.49176 56.4738 5.59898 3.49623 28.7808 4.24298e-006 1.20185e-005 -179.309 14.7507 95.1033 -31.2311 35.6445 2.81672 74.8299 -2.69938 -1.52093 28.7808 1.61087e-005 3.55147e-005 1.27795 6.8753 -91.684 13.0742 1.25261 -0.963951 1.40346 1.20906 -1.01832 -21.1354 1.48384 -0.540879 -1.12278 1.48381 -0.540905 85.3855 -49.238 -108.083 16.4539 22.0075 4.84048 2.07818 24.6075 -28.0606 50.1258 0.446052 -4.09085 -103.588 -53.9148 60.4333 -21.7399 -14.3201 1.28521 -38.4972 -33.4032 -59.5169 40.0113 -12.5259 -35.7467 -24.8755 -2.61663 1.98453 -14.7664 -2.13386 -3.62307 
20.4929 90.6203 46.2974 -85.5042 -11.1209 -88.7607 -177.385 31.059 88.9773 -9.95831 -8.98498 -2.96838 56.9118 -0.462774 -0.485062 28.7808 4.24298e-006 1.20185e-005 -179.025 13.1244 96.1819 -31.9631 36.5958 2.97477 76.7922 -1.77972 -1.11981 28.7808 1.61087e-005 3.55147e-005 1.35274 6.83283 -91.7759 13.1541 1.23175 -1.02713 1.48328 1.18532 -1.08034 -21.0552 1.48252 -0.609417 -1.04257 1.48252 -0.60942 84.8477 -49.5287 -108.807 16.5937 22.7473 3.89526 -0.390917 22.4697 -21.874 48.9882 -0.0927365 -5.23113 -102.545 -54.5327 62.1019 -21.7426 -14.4111 1.69362 -36.0801 -36.2785 -55.2 40.7219 -12.7286 -35.7035 -24.2899 -2.07069 2.31995 -15.3008 -1.64272 -2.73567 
17.7709 90.1682 46.547 -85.9439 -10.5765 -87.8873 -177.173 32.0408 90.5844 -7.71646 -8.26672 -3.21674 58.3579 -4.92353 -3.29278 28.7808 4.24298e-006 1.20185e-005 -178.513 10.7604 97.4328 -31.731 37.3639 3.06287 78.4672 -0.981443 -0.792025 28.7808 1.61087e-005 3.55147e-005 1.34065 6.82572 -91.7157 13.1733 1.22002 -1.18471 1.50233 1.1667 -1.23733 -21.0353 1.51935 -0.763142 -1.02266 1.51934 -0.76316 84.3501 -49.9398 -109.424 16.5263 23.6983 3.11603 -2.31955 20.9739 -15.7301 47.7261 -0.562739 -6.28077 -101.745 -55.2485 63.4575 -21.6137 -14.6179 2.81495 -31.3632 -38.5812 -48.7731 40.3836 -12.5812 -35.6681 -23.6192 -1.53248 2.73489 -15.877 -1.15772 -1.93373 
14.9493 89.7336 46.9289 -86.2143 -10.274 -87.0364 -176.745 32.7283 91.4759 -6.77627 -7.1178 -3.2368 59.7028 -7.02766 -4.48993 28.7808 4.24298e-006 1.20185e-005 -177.97 8.39261 98.5493 -31.2552 38.1283 3.12514 79.6665 -0.00193753 -0.410441 28.7808 1.61087e-005 3.55147e-005 1.2839 6.8015 -91.6447 13.2305 1.17667 -1.3356 1.55935 1.11666 -1.38504 -20.9771 1.52827 -0.921739 -0.964479 1.52826 -0.921757 84.0926 -50.1991 -109.729 16.4468 24.915 2.93152 -4.13812 19.6314 -10.6557 47.091 -0.498791 -6.15523 -101.3 -55.785 64.256 -21.3981 -14.8266 3.67622 -27.0527 -41.0222 -42.4068 42.6517 -12.2956 -33.3007 -22.9336 -1.06136 3.07197 -16.5331 -0.741141 -1.29138 
11.9799 89.308 47.5361 -86.5609 -10.8594 -86.4804 -176.714 32.5073 91.5651 -6.48779 -6.07503 -2.96482 59.8767 -6.66268 -4.2433 28.7808 4.24298e-006 1.20185e-005 -177.473 5.75621 99.2958 -30.7657 39.1043 3.22799 80.3891 1.54598 0.176075 28.7808 1.61087e-005 3.55147e-005 1.16387 6.80008 -91.6469 13.2365 0.997135 -1.35202 1.56516 0.936613 -1.39475 -20.9697 1.35757 -0.990286 -0.957017 1.35755 -0.9903 84.0842 -50.6585 -109.583 16.1832 26.1339 3.42646 -5.32641 19.0447 -6.74996 46.0389 -0.32702 -5.78397 -100.776 -55.9852 65.0403 -21.6489 -14.8001 5.22405 -22.5262 -42.3854 -36.2344 44.5697 -11.9167 -31.2487 -22.2979 -0.548545 3.47189 -16.9343 -0.156562 -1.65653 
8.695 88.7992 48.3853 -86.6841 -11.8546 -86.1866 -176.852 31.5123 91.0821 -7.15624 -6.19951 -2.99087 59.7986 -4.89889 -3.1866 28.7808 4.24298e-006 1.20185e-005 -177.152 3.30328 99.6758 -30.7719 39.813 3.33033 80.5434 3.65788 0.982192 28.7808 1.61087e-005 3.55147e-005 1.16328 6.77839 -91.8276 13.273 0.87042 -1.3511 1.6016 0.81037 -1.38755 -20.9323 1.23432 -1.02567 -0.919665 1.23431 -1.0257 84.7827 -50.853 -108.479 15.7599 27.1308 4.97825 -5.88799 20.2639 -4.21324 45.0789 -0.061795 -5.17112 -101.051 -56.5156 64.8473 -22.2173 -14.6188 -0.988132 -6.93338 -51.5492 -13.304 43.1066 -13.8961 -36.6061 -22.0435 -0.343813 4.33252 -16.9396 0.209984 -2.56675 
